# File created by Blade
# Date/Time:  Thu Sep 25 15:41:58 2014
# Frame Rate: 120.000 fps
#------------------------------------------------------
:FULLY-SPECIFIED
:DEGREES
701
root 0.471444 31.762893 -1.772798 228.508969 -76.651310 -115.236426
Spine 9.488931 3.930081 -17.436569
Head -75.653757 6.524674 7.723978
LeftShoulder -0.867523 16.583848 39.840531
LeftArm 79.081563 -68.288686 -37.634622
LeftForeArm -12.765403 -0.000000 15.008818
LeftHand -30.591406 -0.000000 22.421422
LeftHandThumb1 -26.253704 0.000000 33.147579
RightShoulder -5.241240 23.429813 -36.433894
RightArm 70.088743 34.833556 34.997516
RightForeArm -2.037811 0.000000 17.397816
RightHand -8.350630 -0.000000 -13.853790
RightHandThumb1 -24.326973 -0.000000 -32.862282
LeftUpLeg -111.723591 0.329667 5.105074
LeftLeg 26.705897 -0.000000 -0.000000
LeftFoot -36.571945 19.916491 -27.344536
LeftToeBase -3.149042 -0.000000 0.000000
RightUpLeg -37.361150 -9.845177 11.181172
RightLeg 1.396170 -0.000000 -0.000000
RightFoot 17.763026 8.114995 7.369587
RightToeBase -2.548419 -0.000000 0.000000
702
root 0.829906 31.809539 -1.776226 229.775484 -76.837498 -118.170503
Spine 10.077809 4.845100 -17.334248
Head -74.874677 5.502752 7.559024
LeftShoulder -0.434212 16.627693 39.771036
LeftArm 78.205053 -67.309631 -36.236404
LeftForeArm -11.365084 -0.000000 16.083642
LeftHand -29.960785 -0.000000 21.048166
LeftHandThumb1 -26.253704 0.000000 33.147579
RightShoulder -5.319786 23.173816 -36.367309
RightArm 70.356116 33.915840 35.696492
RightForeArm -3.887704 -0.000000 17.798270
RightHand -8.489674 -0.000000 -14.312304
RightHandThumb1 -24.326973 -0.000000 -32.862282
LeftUpLeg -111.126980 -0.211233 4.793885
LeftLeg 27.372712 -0.000000 -0.000000
LeftFoot -35.901303 20.032213 -27.069232
LeftToeBase -3.094119 -0.000000 0.000000
RightUpLeg -37.991777 -8.386908 10.100956
RightLeg 1.297489 -0.000000 -0.000000
RightFoot 17.153044 9.590809 6.972425
RightToeBase -3.613620 -0.000000 0.000000
703
root 1.206985 31.866376 -1.794231 229.106609 -77.015215 -119.002561
Spine 10.216642 5.811805 -16.818480
Head -73.709425 4.604960 7.285032
LeftShoulder 0.127698 17.105138 39.682241
LeftArm 76.807407 -66.358886 -34.300817
LeftForeArm -9.702217 -0.000000 16.992091
LeftHand -29.673516 -0.000000 20.433560
LeftHandThumb1 -26.253704 0.000000 33.147579
RightShoulder -5.068800 22.751108 -36.340408
RightArm 70.715018 32.898728 36.594037
RightForeArm -5.489090 -0.000000 18.282507
RightHand -8.872210 -0.000000 -14.869664
RightHandThumb1 -24.326973 -0.000000 -32.862282
LeftUpLeg -110.661823 -0.377475 4.603679
LeftLeg 27.948729 -0.000000 -0.000000
LeftFoot -35.163126 19.921058 -26.820788
LeftToeBase -3.468287 -0.000000 0.000000
RightUpLeg -38.717678 -7.057237 9.718963
RightLeg 1.413543 -0.000000 -0.000000
RightFoot 16.765672 11.130143 6.196508
RightToeBase -4.903405 -0.000000 0.000000
704
root 1.579471 31.912086 -1.809025 227.692890 -77.125422 -119.196982
Spine 10.362325 6.781130 -16.086054
Head -72.357753 3.703923 6.664105
LeftShoulder 0.881957 17.219504 39.419271
LeftArm 73.674761 -64.968833 -30.684136
LeftForeArm -8.392790 -0.000000 17.923216
LeftHand -29.676422 0.000000 20.897451
LeftHandThumb1 -26.253704 0.000000 33.147579
RightShoulder -4.875839 22.257656 -36.551878
RightArm 71.221633 31.586659 37.716899
RightForeArm -6.800673 -0.000000 18.775197
RightHand -8.963229 -0.000000 -15.383516
RightHandThumb1 -24.326973 -0.000000 -32.862282
LeftUpLeg -109.988190 -0.417958 4.487792
LeftLeg 28.357127 -0.000000 -0.000000
LeftFoot -34.567061 19.891397 -26.543393
LeftToeBase -3.751094 -0.000000 0.000000
RightUpLeg -39.259618 -6.128102 9.707814
RightLeg 1.639595 -0.000000 -0.000000
RightFoot 16.411734 12.328358 5.905360
RightToeBase -5.548141 -0.000000 0.000000
